<?xml version="1.0" standalone="no"?>
<!DOCTYPE svg PUBLIC "-//W3C//DTD SVG 20010904//EN"
 "http://www.w3.org/TR/2001/REC-SVG-20010904/DTD/svg10.dtd">
<svg version="1.0" xmlns="http://www.w3.org/2000/svg"
 width="669.000000pt" height="346.000000pt" viewBox="0 0 669.000000 346.000000"
 preserveAspectRatio="xMidYMid meet">
<metadata>
Created by potrace 1.15, written by Peter Selinger 2001-2017
</metadata>
<g transform="translate(0.000000,346.000000) scale(0.100000,-0.100000)"
fill="#000000" stroke="none">
<path d="M4150 2994 c-78 -34 -98 -76 -77 -159 11 -41 19 -53 49 -70 42 -23
76 -13 104 30 21 33 8 68 -36 93 -17 9 -29 24 -28 32 7 36 115 28 155 -13 32
-32 45 -97 27 -133 -8 -14 -19 -43 -25 -64 -15 -48 -44 -65 -103 -57 -108 15
-232 84 -431 240 -60 48 -118 87 -127 87 -9 0 -34 -21 -55 -46 -33 -40 -236
-198 -376 -293 -119 -81 -346 -161 -455 -161 -119 0 -212 40 -260 110 -47 70
-13 204 63 247 81 45 211 35 264 -21 27 -28 37 -89 22 -128 -11 -30 -31 -38
-31 -12 0 28 -65 84 -98 84 -51 0 -62 -9 -62 -50 0 -84 39 -130 112 -130 83 0
138 64 138 160 0 47 -5 61 -30 92 -59 71 -188 113 -276 89 -64 -17 -128 -72
-160 -136 -22 -47 -26 -64 -21 -109 7 -68 35 -123 85 -168 57 -52 134 -77 257
-85 92 -5 111 -10 162 -38 54 -30 58 -35 65 -76 3 -24 7 -301 7 -616 1 -558 4
-616 33 -634 5 -3 60 29 121 71 113 79 210 133 260 144 l27 6 0 -111 0 -111
-77 8 c-123 14 -221 9 -278 -13 -78 -31 -475 -295 -475 -316 0 -34 30 -30 90
12 87 61 181 102 248 108 80 7 159 -15 337 -97 82 -38 177 -76 210 -86 168
-48 366 11 559 166 125 101 228 202 269 265 37 56 39 63 33 116 -12 119 -46
177 -165 276 -33 28 -33 29 -19 63 16 37 14 60 -5 60 -5 0 -40 -32 -76 -71
-38 -40 -119 -107 -190 -157 -144 -101 -165 -129 -164 -223 1 -78 25 -120 80
-137 52 -17 111 -3 155 37 54 48 36 119 -34 136 -21 5 -33 1 -53 -20 -27 -26
-28 -40 -9 -89 9 -23 -28 -21 -60 5 -21 16 -26 29 -26 63 0 55 26 89 87 116
60 27 94 16 169 -52 72 -66 84 -92 84 -176 0 -69 -1 -70 -41 -106 -51 -47 -76
-56 -150 -56 -66 0 -182 34 -260 77 l-46 25 -6 165 c-10 244 -8 1453 1 1453 5
0 27 -13 50 -30 72 -52 161 -189 162 -248 0 -14 -17 -44 -41 -70 -98 -111
-151 -241 -151 -366 0 -157 95 -264 251 -283 164 -19 266 65 278 231 7 94 -7
121 -100 190 -98 72 -111 89 -102 123 9 38 44 73 72 73 20 0 23 -5 23 -35 0
-47 32 -79 68 -70 56 14 68 52 31 99 -62 78 -180 74 -224 -8 -17 -31 -18 -42
-8 -88 12 -58 7 -68 -37 -68 -70 0 -130 -69 -130 -147 0 -35 6 -50 33 -79 28
-31 41 -37 85 -42 65 -6 102 15 102 57 0 38 -30 63 -72 59 -26 -2 -36 -10 -48
-35 -20 -44 -34 -36 -38 19 -3 42 1 50 32 82 62 61 149 59 215 -6 38 -38 51
-66 51 -113 0 -106 -92 -185 -215 -185 -141 0 -217 87 -217 248 1 112 30 172
151 312 81 93 133 137 331 278 l124 88 23 -55 c41 -103 161 -191 261 -191 19
0 71 8 116 17 45 9 90 14 99 10 15 -6 17 -29 17 -232 0 -161 -3 -225 -11 -225
-31 0 -79 43 -95 86 -17 44 -17 48 1 96 15 42 16 56 6 88 -23 77 -96 121 -173
106 -54 -11 -78 -32 -78 -71 0 -40 22 -65 56 -65 57 0 81 35 48 72 -16 16 -16
18 0 24 42 16 102 -64 92 -121 -8 -39 -76 -118 -146 -170 -28 -20 -50 -42 -49
-48 0 -7 22 -29 49 -49 61 -47 82 -77 83 -123 1 -41 -28 -75 -115 -137 -32
-23 -58 -44 -58 -48 0 -4 25 -24 55 -45 84 -57 95 -78 92 -167 -2 -84 12 -115
66 -148 63 -39 147 -11 147 49 0 36 -17 51 -58 51 -29 0 -35 -5 -49 -38 -20
-48 -20 -48 -43 -27 -27 24 -25 68 4 132 44 94 150 186 173 150 5 -7 9 -87 11
-178 l4 -167 -84 -62 c-206 -155 -271 -262 -223 -364 25 -53 69 -70 173 -67
40 1 82 39 82 74 0 36 -30 57 -80 57 -36 0 -48 -6 -75 -34 -27 -29 -35 -33
-48 -23 -15 12 -21 33 -18 71 0 10 16 33 35 52 31 31 39 34 95 34 135 0 297
-52 374 -119 20 -18 51 -55 69 -82 32 -50 48 -61 48 -33 0 31 213 243 356 354
208 161 264 232 264 332 -1 76 -29 129 -119 222 -43 44 -86 96 -96 115 -31 62
0 131 60 131 36 0 65 -26 65 -58 0 -18 -3 -20 -23 -13 -31 12 -57 -4 -57 -34
0 -27 28 -40 63 -29 39 12 57 35 57 75 0 29 -6 43 -31 63 -84 71 -199 32 -199
-68 0 -41 20 -82 80 -158 l20 -26 -37 -12 c-47 -16 -60 -26 -80 -63 -21 -42
-10 -108 27 -147 22 -24 36 -30 69 -30 62 0 104 53 69 88 -22 22 -57 14 -73
-18 -17 -33 -25 -36 -43 -18 -17 17 -15 69 4 98 27 40 45 50 90 50 35 0 47 -5
68 -30 70 -84 32 -221 -91 -330 -61 -54 -173 -134 -178 -128 -3 3 -8 214 -12
469 -7 521 -10 497 65 487 73 -10 239 -68 281 -98 48 -35 110 -125 143 -209
47 -117 24 -309 -58 -478 -29 -62 -57 -95 -202 -240 -176 -176 -278 -301 -307
-377 -15 -40 -16 -60 -7 -172 11 -138 3 -188 -38 -249 -24 -36 -25 -54 -5 -61
15 -6 61 31 211 167 65 59 109 89 193 130 60 30 108 59 107 64 -2 6 -41 15
-87 20 -46 6 -94 16 -105 23 -27 14 -54 80 -54 130 0 99 13 119 288 424 191
212 265 301 281 338 41 96 64 200 64 295 -1 180 -92 361 -231 457 l-46 31 39
34 c62 53 118 76 176 71 58 -6 89 -30 89 -69 0 -42 -20 -46 -49 -10 -21 26
-33 32 -56 29 -27 -3 -30 -7 -33 -45 -4 -57 22 -83 82 -83 63 0 106 37 106 91
0 58 -24 106 -65 130 -41 25 -37 36 25 64 36 16 42 24 62 86 12 38 19 72 15
76 -4 4 -47 -32 -95 -79 -116 -115 -347 -271 -395 -266 -17 2 -32 8 -32 15 0
7 90 77 200 157 109 80 214 160 232 177 51 48 66 91 60 180 -8 129 -55 189
-147 189 -92 0 -147 -54 -137 -132 3 -21 12 -50 21 -63 21 -33 77 -43 112 -21
38 26 40 45 11 98 l-27 48 25 0 c34 0 82 -25 95 -50 15 -27 -3 -121 -31 -166
-17 -29 -26 -34 -58 -34 -116 0 -406 151 -524 273 l-58 60 -352 -236 c-377
-252 -418 -276 -518 -302 -124 -33 -224 -1 -296 93 -30 39 -33 50 -33 112 0
77 16 124 57 161 89 83 215 90 281 15 38 -44 48 -95 26 -141 -15 -33 -54 -50
-54 -24 0 27 -36 81 -63 96 -25 12 -37 13 -68 4 -32 -10 -40 -18 -50 -50 -10
-33 -9 -45 7 -77 28 -56 71 -78 139 -69 69 8 114 38 143 95 57 113 -5 225
-147 267 -68 19 -127 12 -196 -25 l-51 -28 -18 43 c-22 52 -72 98 -123 112
-50 14 -71 13 -113 -5z m-700 -990 c0 -661 0 -674 -19 -674 -11 0 -33 11 -48
24 l-28 24 -7 169 c-3 92 -7 375 -7 629 l-1 461 23 20 c36 33 60 43 74 31 10
-8 13 -154 13 -684z m99 662 l28 -15 6 -443 c4 -244 7 -611 7 -815 l0 -373
-23 0 c-13 0 -32 6 -43 14 -18 14 -19 36 -22 830 -2 581 0 816 8 816 6 0 24
-6 39 -14z m1713 -364 l3 -332 -30 -24 c-40 -33 -74 -51 -81 -43 -3 3 -6 158
-7 344 l-2 338 49 33 c27 18 53 29 58 24 4 -4 9 -157 10 -340z m126 46 l2
-296 -26 -21 c-55 -43 -54 -48 -54 292 0 173 3 317 7 321 4 4 21 6 38 4 l30
-3 3 -297z m147 247 c65 -35 165 -108 231 -168 84 -76 83 -78 -130 -224 -98
-68 -183 -123 -187 -123 -5 0 -9 22 -9 49 0 48 1 50 38 62 141 45 209 122 182
203 -22 66 -113 91 -146 41 -34 -53 20 -98 70 -60 53 40 48 -13 -6 -65 -44
-42 -115 -83 -130 -74 -4 3 -8 90 -8 195 l0 189 24 0 c12 0 44 -11 71 -25z
m-142 -727 c4 -46 7 -259 7 -474 l0 -390 -30 -29 c-19 -18 -34 -25 -39 -19 -6
5 -13 212 -17 480 l-7 471 21 21 c12 12 30 22 41 22 16 0 19 -11 24 -82z
m-561 -105 c6 -181 4 -184 -90 -137 -83 41 -103 98 -55 155 31 36 112 98 129
99 8 0 13 -38 16 -117z m432 95 c3 -13 6 -127 6 -255 l0 -232 -32 11 c-18 5
-43 21 -55 35 -22 23 -23 31 -23 218 l0 194 37 26 c46 31 59 31 67 3z m4 -652
l-3 -55 -82 47 c-46 26 -83 52 -83 57 0 6 37 31 83 56 l82 46 3 -48 c2 -27 2
-73 0 -103z m-153 -33 c60 -19 118 -54 139 -85 17 -25 22 -98 6 -98 -5 0 -46
20 -90 44 -87 49 -199 96 -225 96 -24 0 -13 22 24 47 36 24 57 23 146 -4z"/>
<path d="M576 2955 c-87 -31 -145 -105 -154 -196 -9 -93 51 -194 137 -232 56
-25 186 -33 273 -18 36 6 74 8 83 5 20 -8 31 1 -121 -115 -225 -173 -362 -434
-380 -724 -8 -126 6 -215 56 -345 42 -111 87 -191 143 -255 20 -24 37 -46 37
-49 0 -3 -22 -17 -48 -30 -127 -64 -160 -188 -73 -275 74 -74 174 -89 227 -36
50 50 15 125 -58 125 -53 0 -71 -23 -63 -77 6 -38 4 -43 -13 -43 -21 0 -82 62
-82 83 2 69 54 168 101 193 41 21 59 18 118 -22 30 -20 142 -79 250 -131 144
-69 208 -106 243 -139 27 -25 56 -44 65 -42 10 2 45 42 78 90 102 146 148 191
400 394 248 198 314 264 414 410 51 77 103 188 127 274 14 49 18 99 18 200 0
117 -4 147 -28 225 -15 49 -48 132 -73 185 -43 88 -56 106 -198 250 -157 160
-215 230 -215 261 0 45 -29 25 -159 -107 -83 -85 -158 -152 -193 -173 -97 -56
-93 -63 -96 147 -3 219 -8 225 -88 104 -44 -66 -70 -92 -170 -169 -133 -101
-193 -134 -281 -157 -157 -41 -279 -5 -335 99 -44 82 -41 140 8 194 44 50 88
64 171 59 57 -4 69 -8 89 -32 16 -18 24 -40 24 -66 0 -45 -16 -54 -49 -29 -55
43 -141 6 -141 -61 0 -36 47 -90 77 -90 57 1 155 79 169 136 10 37 -1 99 -22
128 -44 60 -173 85 -268 51z m934 -930 l0 -564 -42 -29 c-24 -15 -103 -63
-175 -106 -73 -43 -133 -85 -133 -92 0 -18 20 -18 58 2 29 14 83 19 126 12 14
-2 21 5 28 30 11 42 88 122 116 122 22 0 22 -2 22 -165 0 -142 -2 -166 -16
-172 -9 -3 -72 -1 -140 6 -100 9 -144 18 -220 47 -110 41 -164 70 -164 90 0
19 145 138 211 174 31 16 62 37 69 46 8 8 62 43 122 76 60 33 111 65 114 69
12 21 -8 27 -42 13 -20 -8 -39 -12 -43 -9 -3 4 -7 222 -9 485 l-3 479 48 25
c26 14 54 25 61 26 9 0 12 -119 12 -565z m108 509 l22 -15 0 -714 0 -713 -30
-7 c-16 -4 -34 -4 -40 0 -7 4 -10 249 -10 736 0 692 1 729 18 729 10 0 28 -7
40 -16z m-585 -25 c22 -10 25 -19 31 -101 3 -50 6 -304 6 -564 l0 -473 -77
-65 c-43 -36 -83 -66 -88 -66 -13 0 -129 119 -173 176 -111 146 -163 340 -142
538 15 150 26 167 225 366 96 96 175 180 175 187 0 16 12 16 43 2z m728 -76
c88 -67 207 -222 258 -335 67 -148 79 -305 37 -471 -29 -115 -98 -261 -159
-338 -40 -49 -170 -159 -189 -159 -5 0 -8 92 -8 205 l0 205 40 0 c60 0 108
-23 116 -56 13 -49 -10 -64 -81 -52 -15 2 -21 -3 -23 -21 -5 -33 21 -51 74
-51 59 0 86 34 82 104 -3 46 -7 53 -45 82 -23 18 -48 34 -55 37 -8 3 20 36 72
88 115 112 144 178 121 266 -22 80 -86 133 -161 133 -85 0 -127 -50 -109 -130
10 -45 42 -70 89 -70 45 0 65 20 56 55 -5 18 -13 25 -31 25 -13 0 -27 -4 -30
-10 -12 -20 -35 -10 -35 16 0 47 17 64 64 64 77 0 123 -75 97 -160 -21 -71
-186 -260 -227 -260 -12 0 -14 66 -14 435 0 239 3 435 6 435 4 0 29 -17 55
-37z"/>
<path d="M743 2215 c-25 -18 -31 -63 -11 -83 19 -19 65 -14 82 9 24 35 51 21
54 -29 4 -61 -30 -114 -122 -190 -42 -34 -76 -68 -76 -75 0 -7 16 -29 36 -48
19 -18 44 -48 55 -65 19 -31 19 -32 -1 -95 -32 -105 -27 -133 38 -201 43 -45
87 -56 131 -34 43 23 63 57 59 102 -2 30 -9 42 -30 54 -53 29 -87 -20 -50 -70
24 -32 14 -50 -28 -50 -47 0 -63 21 -68 88 -4 52 0 67 24 113 16 30 62 88 102
130 39 42 72 79 72 83 0 4 -26 32 -57 61 l-58 53 13 46 c22 84 16 132 -21 172
-39 43 -106 57 -144 29z"/>
<path d="M2656 2359 c-25 -20 -28 -27 -23 -68 3 -30 12 -51 26 -63 36 -29 81
1 81 53 0 15 3 30 8 32 15 9 53 -13 64 -39 18 -39 -16 -94 -133 -218 -55 -57
-99 -107 -99 -110 0 -3 36 -31 80 -62 97 -68 110 -84 100 -127 -13 -59 -42
-101 -112 -169 -76 -70 -81 -90 -33 -108 37 -14 92 -58 116 -92 l21 -28 -32
-77 c-27 -64 -31 -83 -25 -122 9 -56 67 -120 111 -122 55 -2 69 2 97 32 53 57
23 139 -51 139 -45 0 -61 -34 -38 -79 l17 -31 -30 0 c-37 0 -61 31 -61 80 0
55 48 126 154 229 54 51 96 94 94 96 -143 116 -179 163 -180 235 -1 53 29 98
107 161 36 29 65 55 65 58 -1 3 -28 24 -61 46 -33 22 -69 54 -79 70 -19 30
-19 31 1 74 21 48 25 127 7 165 -16 37 -52 57 -111 63 -44 4 -57 1 -81 -18z"/>
<path d="M2153 1254 c-110 -76 -291 -211 -398 -299 -121 -99 -263 -251 -248
-266 7 -7 25 0 57 22 36 26 58 34 107 37 l61 5 -5 35 c-9 50 12 90 74 146 76
69 147 100 207 91 101 -15 162 -72 162 -150 0 -71 -67 -145 -131 -145 -67 0
-109 32 -109 83 0 22 4 24 39 24 47 0 61 8 61 34 0 38 -19 59 -54 59 -87 0
-129 -111 -75 -197 16 -27 77 -53 123 -53 70 0 153 46 181 100 22 42 19 123
-5 171 -22 41 -93 95 -140 105 -14 3 -36 10 -50 15 l-24 11 24 19 c44 34 123
69 156 69 27 0 32 4 38 32 3 18 16 42 27 54 20 21 19 44 -1 44 -5 0 -39 -21
-77 -46z"/>
<path d="M6091 1143 c-47 -46 -114 -104 -150 -128 -97 -65 -193 -156 -224
-212 -38 -70 -61 -166 -47 -193 16 -29 25 -19 55 59 29 78 72 142 110 167 65
43 166 37 204 -13 25 -31 29 -104 6 -123 -12 -10 -17 -6 -31 23 -19 41 -50 58
-81 46 -47 -17 -55 -96 -13 -134 25 -22 98 -22 141 0 118 62 46 255 -102 273
l-52 7 49 40 c47 39 50 40 126 40 l78 0 0 38 c0 21 11 72 25 113 30 89 29 84
8 83 -10 -1 -56 -39 -102 -86z"/>
<path d="M4165 845 c-170 -135 -205 -175 -152 -175 15 0 44 17 73 43 128 115
188 141 228 101 23 -22 21 -59 -1 -49 -10 5 -32 10 -50 13 -38 5 -58 -23 -48
-69 9 -41 46 -63 90 -55 44 9 70 46 70 103 0 35 -6 48 -37 80 l-37 38 35 37
c37 41 44 68 17 68 -10 0 -94 -61 -188 -135z"/>
<path d="M2903 765 c-34 -7 -72 -19 -85 -25 -37 -20 -78 -62 -78 -82 0 -34 29
-32 83 5 61 42 97 57 138 57 26 0 29 -3 29 -33 0 -45 28 -70 80 -70 47 0 70
16 70 50 0 30 -48 78 -93 91 -61 19 -82 20 -144 7z"/>
</g>
</svg>
